<?xml version="1.0" standalone="no"?>
<!DOCTYPE svg PUBLIC "-//W3C//DTD SVG 20010904//EN"
 "http://www.w3.org/TR/2001/REC-SVG-20010904/DTD/svg10.dtd">
<svg version="1.0" xmlns="http://www.w3.org/2000/svg"
 width="300.000000pt" height="300.000000pt" viewBox="0 0 300.000000 300.000000"
 preserveAspectRatio="xMidYMid meet">
<metadata>
Created by potrace 1.10, written by Peter Selinger 2001-2011
</metadata>
<g transform="translate(0.000000,300.000000) scale(0.100000,-0.100000)"
fill="#000000" stroke="none">
<path d="M2008 2307 c-87 -39 -127 -155 -79 -232 23 -39 107 -123 146 -146 35
-22 93 -24 138 -5 44 18 95 78 103 121 12 67 -3 104 -74 178 -37 38 -79 75
-94 83 -32 17 -103 17 -140 1z"/>
<path d="M695 2296 c-76 -34 -116 -117 -95 -197 10 -40 77 -110 723 -757 392
-392 724 -720 739 -728 40 -21 126 -18 166 6 63 39 94 120 72 193 -10 36 -109
140 -718 750 -392 393 -724 717 -744 728 -43 22 -100 24 -143 5z"/>
<path d="M1338 2290 c-51 -28 -81 -80 -81 -144 0 -28 7 -65 16 -81 21 -41 754
-768 794 -789 97 -49 223 12 239 116 15 92 24 82 -394 502 -219 219 -401 394
-419 402 -45 19 -111 17 -155 -6z"/>
<path d="M675 1627 c-73 -41 -107 -146 -71 -215 8 -15 73 -85 145 -157 l131
-129 -129 -131 c-71 -71 -136 -144 -145 -162 -62 -123 63 -271 197 -234 38 11
74 43 255 224 116 117 216 225 222 240 14 39 13 81 -4 120 -14 34 -391 418
-441 448 -42 26 -110 24 -160 -4z"/>
</g>
</svg>
